<svg width="40.000000" height="40.000000" viewBox="0 0 40 40" fill="none" xmlns="http://www.w3.org/2000/svg" xmlns:xlink="http://www.w3.org/1999/xlink">
	<g clip-path="url(#clip2_8)">
		<path d="M3.08436 31.2725Q4.22694 32.3271 5.4867 32.8545Q7.27381 33.5869 9.04627 33.5283Q10.8187 33.4551 12.4594 32.7959Q14.1146 32.1367 15.5502 30.9648Q17.0004 29.793 18.0844 28.3574Q18.8607 27.2148 19.3734 25.8672Q19.8861 24.5195 19.9154 23.1426Q19.9447 21.7656 19.3734 20.5352Q18.8021 19.3047 17.4838 18.4551Q16.6342 17.9131 15.6967 17.7959Q14.7738 17.6787 13.807 17.6201Q12.8549 17.5615 11.9467 17.4736Q11.0531 17.3857 10.2767 16.9023Q9.38319 16.4189 8.92908 15.6426Q8.47498 14.8662 8.41639 14.002Q8.3578 13.123 8.62147 12.2588Q8.89979 11.3799 9.44178 10.6621Q9.67616 10.3545 10.4525 9.88574Q11.2435 9.40234 12.1078 8.94824Q12.9867 8.49414 13.6459 8.20117L14.3051 7.89355Q14.4808 8.37695 14.8617 8.59668Q15.2572 8.80176 15.6088 8.77246Q15.975 8.74316 16.268 8.47949Q16.5756 8.20117 16.5756 7.65918Q16.5756 6.5752 15.975 6.01855Q15.3744 5.44727 14.5101 5.24219Q13.6459 5.02246 12.6205 5.11035Q11.5951 5.19824 10.8187 5.37402Q8.06483 6.0332 6.07264 8.08398Q4.0951 10.1201 3.86073 13.0059Q3.62635 15.3936 4.72498 17.6201Q5.83826 19.8467 7.93299 21.0332Q8.53358 21.3994 9.64686 21.5898Q10.7601 21.7656 11.8295 22.0732Q12.9135 22.3662 13.6019 22.9375Q14.3051 23.4941 13.9974 24.6367Q13.8217 25.2959 13.0014 25.8672Q12.1957 26.4385 11.1996 26.8047Q10.2181 27.1562 9.22205 27.2881Q8.24061 27.4053 7.69862 27.1562Q6.67323 26.6729 5.83826 25.5742Q5.0033 24.4609 4.15369 23.7432Q3.68494 23.4355 3.17225 23.5381Q2.65955 23.626 2.29334 23.9189Q0.974983 25.0029 0.828499 26.3506Q0.682014 27.6982 1.3119 28.958Q1.94178 30.2178 3.08436 31.2725ZM21.1406 29.5293Q21.1406 30.5254 22.2246 31.3018Q23.8945 32.5615 25.872 33.0742Q27.8642 33.5869 29.7539 33.25Q31.6435 32.9131 33.167 31.6973Q34.705 30.4668 35.4228 28.1816Q36.7412 24.2266 36.5507 19.8467Q36.375 15.4668 35.0566 11.4971Q35.9062 11.3799 36.6826 11.2041Q37.4589 11.0137 38.1181 10.6035Q38.8359 10.1787 39.041 9.49023Q39.2607 8.80176 39.041 8.11328Q38.8359 7.4248 38.2646 6.94141Q37.6933 6.45801 36.917 6.45801Q35.6572 6.45801 34.4267 6.73633Q33.1963 7 31.8779 7Q30.9257 7.05859 29.8125 6.94141Q28.6992 6.82422 27.8056 7.17578Q27.0732 7.4248 26.956 8.20117Q26.956 8.55273 27.498 8.88965Q27.9448 9.1674 28.0233 9.08675Q28.04 9.06957 28.04 9.03613Q28.04 9.1164 28.001 9.14722Q27.9474 9.18952 27.8203 9.13867Q27.6152 9.03613 27.4394 8.97754Q27.3159 8.93636 27.2936 8.96752Q27.2842 8.98071 27.2929 9.00684Q27.3222 9.09473 27.8056 9.51953L28.582 10.1787Q30.0175 11.0869 31.7021 11.3213Q31.8193 11.3213 31.9658 11.3506Q32.1269 11.3799 32.2441 11.3799Q32.3027 13.0059 32.4199 14.9834Q32.5371 16.9609 32.4785 18.9092Q32.4199 20.8574 32.1123 22.6299Q31.8193 24.4023 31.0722 25.5449Q30.3252 26.6729 28.9629 27.0391Q27.6152 27.4053 25.5205 26.5557Q24.4951 26.1455 23.4404 26.541Q22.4004 26.9219 21.7705 27.7275Q21.1406 28.5332 21.1406 29.5293Z" fill="url(#paint_linear_2_11_0)"/>
	</g>
	<defs>
		<clipPath id="clip2_8">
			<rect width="40.000000" height="40.000000" fill="white"/>
		</clipPath>
		<linearGradient id="paint_linear_2_11_0" x1="44.375038" y1="43.779968" x2="-4.999997" y2="-6.439993" gradientUnits="userSpaceOnUse">
			<stop offset="0.251908" stop-color="#5C83C8"/>
			<stop offset="0.763359" stop-color="#01BD5A"/>
		</linearGradient>
	</defs>
</svg>
